<svg xmlns="http://www.w3.org/2000/svg" viewBox="0 0 210.86 290.61"><defs><style>.cls-1{fill:#0e8fad;}</style></defs><g id="Capa_2" data-name="Capa 2"><g id="Capa_1-2" data-name="Capa 1"><path d="M159.17,178.72c5.47,2.42,20.21,7.36,27,3.87V152.87q0-10.16,0-20.31c0-9.19-4.17-12.4-13-10-17.07,4.55-34.11,9.18-51.2,13.65,0-2.45,0-4.84-.06-7,4.65-.54,9-1.76,12-4.42s4.14-6.63,4.79-10.78c10-1.28,21.35-7,19.71-18.86a14,14,0,0,0-2.79-6.36c0-.06.11-.12.16-.19,3.41-4.93,9.88-8.83,11.74-14.65,1.51-4.71,0-10.19-1.93-14.55-1.51-3.39-3.73-5.8-5.86-8.74-2.72-3.76-2.82-5.85-2.63-10.32.23-5.55-.65-11.34-3.64-16.11a19.65,19.65,0,0,0-10.81-8.13c-3.83-1.31-7.5-1-10.08-4-1.76-2.1-2.14-4.78-3.95-6.87-8.36-9.66-21.28-3.87-30.19,1.73C91.68-1.79,81,5.11,73,8.94c-5.84,2.78-12.12,4-16.82,8.82C51.05,23,51.78,30.34,47.42,36.25c-3,4.08-6.27,7.93-7.1,13.17-.39,2.54.11,4,.74,6.39,1.46,5.51,1.14,8.46-1.81,13.23-7.62,12.38,1.55,18.17,12,23.23a2.25,2.25,0,0,0,1.07.23,12,12,0,0,0-.69,2.64C50.07,107,61.34,112.68,71.3,114c.58,3.8,1.66,7.46,3.92,10,3.78,4.27,11,5.36,18,5.57a57.59,57.59,0,0,0,.1,6.57c-17-4.46-34.07-9.08-51.1-13.62-8.85-2.35-13,.86-13,10q0,10.16,0,20.31v29.72c6.78,3.49,21.52-1.45,27-3.87a2.5,2.5,0,1,1,2,4.56A78,78,0,0,1,43.39,188c-.38.08-.73.13-1.1.2a13.1,13.1,0,0,1,1.5,1.48L59,185.42a2.5,2.5,0,1,1,1.34,4.81L46.4,194.09a15.16,15.16,0,0,1,.43,1.5l12.79-3.54A2.5,2.5,0,1,1,61,196.87l-14,3.88c-.05.31-.12.62-.19.92l12.44-2.3a2.5,2.5,0,1,1,.91,4.91l-30,5.72a1.59,1.59,0,0,0-.36.63,8.08,8.08,0,0,0,.37.85,4.33,4.33,0,0,0,1.66.52h1.83c2.31,0,.09.28-1.83,0H30.47c1.3,2,3.74,3.2,7.67,4.26Q67,224,96,231.83c8,2.15,8.69,1.63,8.69-6.38,0-27.16-.07-54.33.09-81.49,0-3.69-1.17-5.15-4.69-6.06l-2.55-.66c0-2.5-.14-5.06,0-7.65,2.78,0,5.36-.13,7.46-.13,3.46,0,8,.24,12.5.06.08,2.41,0,5.08,0,7.8l-2.25.58c-3.52.91-4.71,2.37-4.69,6.06.16,27.16.08,54.33.09,81.49,0,8,.67,8.53,8.69,6.38q28.92-7.76,57.82-15.57c3.93-1.06,6.37-2.3,7.67-4.26h-1.35c-1.92.28-4.14,0-1.84,0h1.84a4.39,4.39,0,0,0,1.66-.52,8.08,8.08,0,0,0,.37-.85,1.51,1.51,0,0,0-.37-.63l-30-5.72a2.5,2.5,0,1,1,.91-4.91l12.44,2.3a9.37,9.37,0,0,1-.19-.92l-14-3.88a2.5,2.5,0,1,1,1.34-4.82l12.79,3.54a12.86,12.86,0,0,1,.43-1.5L155,190.23a2.5,2.5,0,0,1,1.33-4.81l15.2,4.21a13.1,13.1,0,0,1,1.5-1.48c-.37-.07-.73-.12-1.11-.2a77.79,77.79,0,0,1-14.77-4.67,2.5,2.5,0,1,1,2-4.56ZM152.89,102c-2.72,5-8.39,6.9-13.74,7.62.13-1.48.23-2.92.35-4.24.09-1,.17-1.94.25-2.9a2.22,2.22,0,0,0,.48-.62,11,11,0,0,1,2.53-3.28c.86.93.93,2.62,1,3.82.21,2.79,4.58,2.81,4.37,0a14.06,14.06,0,0,0-1.48-5.79c2.72-.63,6.41-.25,7,3a2,2,0,0,0,.08.29A10,10,0,0,1,152.89,102Zm-12.51-7.09c.1-1.25.21-2.5.32-3.76a2,2,0,0,0,.62-.81c2.42-5.48,8.77-2.61,11.28,1.37a8.91,8.91,0,0,1,.63,1.18,12.16,12.16,0,0,0-5.71-.84,13.6,13.6,0,0,0-5.3,1.66A2.22,2.22,0,0,0,140.38,94.86ZM54.24,89.07a2.08,2.08,0,0,0-.74-.57c-6.74-3.25-16-8.27-10.47-17.25,1.61-2.63,4-4.85,4.72-8,.48-2.09.06-3.6-.34-5.63-.62-3.1-2.69-6.41-2.09-10,.5-3,3.42-6.17,5.19-8.3,1.55-1.89,3.4-3.57,4.45-5.81C57.51,28.12,56.8,22,62.55,18.2,66.47,15.58,71,15,75.18,13,81.12,10.09,90.57,1.44,96,11.22a2.13,2.13,0,0,0,3.66.06c5.86-3.84,12.82-8.52,20-6.21,4.75,1.53,5.76,4.82,7.8,8.65a11.13,11.13,0,0,0,1.79,3.06c2.32,2.09,6.87,2,9.73,2.81,7.35,2,11.87,6.48,13.33,14,.89,4.62-1,9.64.17,14.08.7,2.64,2.35,4,4.1,6,5.42,6.36,9.64,14.91,4.19,22.66-2.31,3.29-5.74,5.91-8.26,9.23-3.42-2.75-7.7-4-11.08-2.15.4-3.74.9-7.47,1.54-11.21l.63.34c2.5,1.28,4.71-2.48,2.21-3.77-1.82-.93-8.91-5-7.62-7.83a2.22,2.22,0,0,0-2.47-3.21c-7.4,1.19-13.86-2-17.85-8.2a2.21,2.21,0,0,0-3.78,0c-3.37,6.2-17.11,6.33-19.8-.47a2.22,2.22,0,0,0-4-.52c-2.48,3.78-12.41,14.81-17.85,8.86a2.21,2.21,0,0,0-3.65,1A32.1,32.1,0,0,1,62.66,69c-1.79,2.14,1.28,5.25,3.09,3.09.37-.43.71-.86,1-1.29.77,4.22,1.35,8.44,1.82,12.66C64,80.91,57.75,84.19,54.24,89.07ZM69.7,94.94l0,0a2.21,2.21,0,0,0-1.87-1.25A13.6,13.6,0,0,0,62.49,92a12.09,12.09,0,0,0-5.69.83c.08-.16.13-.33.21-.49,2.15-4.32,9.1-7.91,11.68-2a1.9,1.9,0,0,0,.69.86C69.49,92.41,69.59,93.67,69.7,94.94Zm-12.58,7a10.06,10.06,0,0,1-.81-2,2.33,2.33,0,0,0,.08-.31c.54-3.26,4.24-3.66,7-3a14.22,14.22,0,0,0-1.48,5.79c-.2,2.81,4.16,2.79,4.37,0,.09-1.2.16-2.88,1-3.81a11,11,0,0,1,2.54,3.27,2.12,2.12,0,0,0,.5.65l.09,1.21c.15,1.78.25,3.8.42,5.89C65.46,108.83,59.84,106.92,57.12,102ZM105,125.1c-9.44,0-24.41,1.8-28.43-9-2.89-7.78-2-17.51-2.7-25.72a204.09,204.09,0,0,0-3.1-22,1.79,1.79,0,0,0-1.27-1.49,39.65,39.65,0,0,0,2.31-4.38c6.65,3.7,15.38-3.13,20.23-9,5.55,6.49,17.92,7,23.92.82a21.2,21.2,0,0,0,17.88,8c.35,2.84,2.58,5.39,5.14,7.38-1.18,6.31-2.14,12.65-2.72,19-.73,8.08.38,18.13-2.44,25.78-2.91,7.87-6.62,9.29-13.93,10C115,125,110,125.1,105,125.1Z"/><path d="M110.79,73.15a68.44,68.44,0,0,1,2.46,9,25.92,25.92,0,0,1,.55,5c0,1.85-1.35,9.35-5.74,5.63a1.73,1.73,0,0,0-1.7-.45,10.91,10.91,0,0,1-6.29.7c-2.2-.4-3.14,3-.93,3.37a14.34,14.34,0,0,0,5.1.2c2.49-.44,1.46-.42,3.44,0,2.61.57,4.77.38,6.8-1.58,5.79-5.57,1.71-16.56-.32-22.85C113.47,70.09,110.09,71,110.79,73.15Z"/><path d="M114,107.22a52.08,52.08,0,0,1-13.9,1.56c-2.25,0-2.25,3.45,0,3.5a56.15,56.15,0,0,0,14.83-1.69C117.08,110.05,116.16,106.67,114,107.22Z"/><path d="M89.83,78.32a3.34,3.34,0,1,0,3.33,3.34A3.34,3.34,0,0,0,89.83,78.32Z"/><path d="M124.42,81.66A3.34,3.34,0,1,0,121.08,85,3.35,3.35,0,0,0,124.42,81.66Z"/><path d="M97.29,66A17,17,0,0,0,79,68.12c-1.77,1.39.72,3.85,2.47,2.47a13.35,13.35,0,0,1,14-1.55C97.55,70,99.32,67,97.29,66Z"/><path d="M116.43,69a13.33,13.33,0,0,1,14,1.55c1.75,1.38,4.24-1.08,2.47-2.47A17,17,0,0,0,114.66,66C112.63,67,114.4,70,116.43,69Z"/><path class="cls-1" d="M43,71.25c1.61-2.63,4-4.85,4.72-8,.48-2.09.06-3.6-.34-5.63-.62-3.1-2.69-6.41-2.09-10,.5-3,3.42-6.17,5.19-8.3,1.55-1.89,3.4-3.57,4.45-5.81C57.51,28.12,56.8,22,62.55,18.2,66.47,15.58,71,15,75.18,13,81.12,10.09,90.57,1.44,96,11.22a2.13,2.13,0,0,0,3.66.06c5.86-3.84,12.82-8.52,20-6.21,4.75,1.53,5.76,4.82,7.8,8.65a11.13,11.13,0,0,0,1.79,3.06c2.32,2.09,6.87,2,9.73,2.81,7.35,2,11.87,6.48,13.33,14,.89,4.62-1,9.64.17,14.08.7,2.64,2.35,4,4.1,6,5.42,6.36,9.64,14.91,4.19,22.66-2.31,3.29-5.74,5.91-8.26,9.23-3.42-2.75-7.7-4-11.08-2.15.4-3.74.9-7.47,1.54-11.21l.63.34c2.5,1.28,4.71-2.48,2.21-3.77-1.82-.93-8.91-5-7.62-7.83a2.22,2.22,0,0,0-2.47-3.21c-7.4,1.19-13.86-2-17.85-8.2a2.21,2.21,0,0,0-3.78,0c-3.37,6.2-17.11,6.33-19.8-.47a2.22,2.22,0,0,0-4-.52c-2.48,3.78-12.41,14.81-17.85,8.86a2.21,2.21,0,0,0-3.65,1A32.1,32.1,0,0,1,62.66,69c-1.79,2.14,1.28,5.25,3.09,3.09.37-.43.71-.86,1-1.29.77,4.22,1.35,8.44,1.82,12.66-4.6-2.59-10.87.69-14.38,5.57a2.08,2.08,0,0,0-.74-.57C46.76,85.25,37.52,80.23,43,71.25Z"/><path d="M12.91,250.43,22.36,272l9.46-21.59,12.91,29.45-6.82,3L31.82,269l-9.46,21.59L12.91,269,6.82,282.88l-6.82-3Z"/><path d="M67.46,252.2l5.31,5.32L60.64,269.66v11.72H53.09V269.66L41,257.52l5.32-5.32,10.59,10.64Z"/><path class="cls-1" d="M81.91,250.43,91.36,272l9.46-21.59,12.91,29.45-6.82,3L100.82,269l-9.46,21.59L81.91,269l-6.09,13.86-6.82-3Z"/><path class="cls-1" d="M129.5,278.75h1.14v7.54H129.5a14.33,14.33,0,0,1-14.36-14.36v-3.82a14.39,14.39,0,0,1,28.77,0v5H122.82A6.86,6.86,0,0,0,129.5,278.75Zm0-17.46a6.83,6.83,0,0,0-6.27,4.19h12.5A6.89,6.89,0,0,0,129.54,261.29Z"/><path class="cls-1" d="M176.14,290l-19-22.87v14.27h-7.59V246.29l18.95,22.87V254.88h7.6Z"/><path class="cls-1" d="M189.63,268.11a6.82,6.82,0,0,0,13.64,0V254.88h7.59v13.23a14.41,14.41,0,0,1-28.82,0V254.88h7.59Z"/></g></g></svg>